<?xml version="1.0" encoding="UTF-8" standalone="no"?>
<!DOCTYPE svg PUBLIC "-//W3C//DTD SVG 1.1//EN"
 "http://www.w3.org/Graphics/SVG/1.1/DTD/svg11.dtd">
<!-- Generated by graphviz version 2.47.0 (20210316.0004)
 -->
<!-- Title: dependencies Pages: 1 -->
<svg width="784pt" height="211pt"
 viewBox="0.00 0.00 784.00 211.00" xmlns="http://www.w3.org/2000/svg" xmlns:xlink="http://www.w3.org/1999/xlink">
<g id="graph0" class="graph" transform="scale(1 1) rotate(0) translate(4 207)">
<title>dependencies</title>
<polygon fill="white" stroke="transparent" points="-4,4 -4,-207 780,-207 780,4 -4,4"/>
<text text-anchor="start" x="367.01" y="-42.4" font-family="sans-serif" font-weight="bold" font-size="14.00">Legend</text>
<polygon fill="#ffffb3" stroke="transparent" points="154,-10 154,-30 174,-30 174,-10 154,-10"/>
<text text-anchor="start" x="177.63" y="-15.4" font-family="sans-serif" font-size="14.00"> &#160;Declarations</text>
<polygon fill="#8dd3c7" stroke="transparent" points="267,-10 267,-30 287,-30 287,-10 267,-10"/>
<text text-anchor="start" x="290.73" y="-15.4" font-family="sans-serif" font-size="14.00"> &#160;Module</text>
<polygon fill="#80b1d3" stroke="transparent" points="353,-10 353,-30 373,-30 373,-10 353,-10"/>
<text text-anchor="start" x="376.78" y="-15.4" font-family="sans-serif" font-size="14.00"> &#160;Bootstrap</text>
<polygon fill="#fdb462" stroke="transparent" points="450,-10 450,-30 470,-30 470,-10 450,-10"/>
<text text-anchor="start" x="473.67" y="-15.4" font-family="sans-serif" font-size="14.00"> &#160;Providers</text>
<polygon fill="#fb8072" stroke="transparent" points="546,-10 546,-30 566,-30 566,-10 546,-10"/>
<text text-anchor="start" x="569.73" y="-15.4" font-family="sans-serif" font-size="14.00"> &#160;Exports</text>
<g id="clust1" class="cluster">
<title>cluster_FrontofficeModule</title>
<polygon fill="none" stroke="black" stroke-dasharray="1,5" points="8,-70 8,-195 768,-195 768,-70 8,-70"/>
</g>
<g id="clust2" class="cluster">
<title>cluster_FrontofficeModule_declarations</title>
<polygon fill="none" stroke="black" points="16,-78 16,-130 760,-130 760,-78 16,-78"/>
</g>
<!-- FrontFooterComponent -->
<g id="node1" class="node">
<title>FrontFooterComponent</title>
<polygon fill="#ffffb3" stroke="black" points="752.21,-122 603.79,-122 603.79,-86 752.21,-86 752.21,-122"/>
<text text-anchor="middle" x="678" y="-99.8" font-family="Times,serif" font-size="14.00">FrontFooterComponent</text>
</g>
<!-- FrontofficeModule -->
<g id="node6" class="node">
<title>FrontofficeModule</title>
<polygon fill="#8dd3c7" stroke="black" points="405.03,-187 402.03,-191 381.03,-191 378.03,-187 282.97,-187 282.97,-151 405.03,-151 405.03,-187"/>
<text text-anchor="middle" x="344" y="-164.8" font-family="Times,serif" font-size="14.00">FrontofficeModule</text>
</g>
<!-- FrontFooterComponent&#45;&gt;FrontofficeModule -->
<g id="edge1" class="edge">
<title>FrontFooterComponent&#45;&gt;FrontofficeModule</title>
<path fill="none" stroke="black" d="M678,-122.28C678,-143.32 678,-175 678,-175 678,-175 415.26,-175 415.26,-175"/>
<polygon fill="black" stroke="black" points="415.26,-171.5 405.26,-175 415.26,-178.5 415.26,-171.5"/>
</g>
<!-- FrontHeaderComponent -->
<g id="node2" class="node">
<title>FrontHeaderComponent</title>
<polygon fill="#ffffb3" stroke="black" points="586.08,-122 433.92,-122 433.92,-86 586.08,-86 586.08,-122"/>
<text text-anchor="middle" x="510" y="-99.8" font-family="Times,serif" font-size="14.00">FrontHeaderComponent</text>
</g>
<!-- FrontHeaderComponent&#45;&gt;FrontofficeModule -->
<g id="edge2" class="edge">
<title>FrontHeaderComponent&#45;&gt;FrontofficeModule</title>
<path fill="none" stroke="black" d="M510,-122.02C510,-139.37 510,-163 510,-163 510,-163 415.34,-163 415.34,-163"/>
<polygon fill="black" stroke="black" points="415.34,-159.5 405.34,-163 415.34,-166.5 415.34,-159.5"/>
</g>
<!-- FrontofficeComponent -->
<g id="node3" class="node">
<title>FrontofficeComponent</title>
<polygon fill="#ffffb3" stroke="black" points="416.31,-122 271.69,-122 271.69,-86 416.31,-86 416.31,-122"/>
<text text-anchor="middle" x="344" y="-99.8" font-family="Times,serif" font-size="14.00">FrontofficeComponent</text>
</g>
<!-- FrontofficeComponent&#45;&gt;FrontofficeModule -->
<g id="edge3" class="edge">
<title>FrontofficeComponent&#45;&gt;FrontofficeModule</title>
<path fill="none" stroke="black" d="M344,-122.11C344,-122.11 344,-140.99 344,-140.99"/>
<polygon fill="black" stroke="black" points="340.5,-140.99 344,-150.99 347.5,-140.99 340.5,-140.99"/>
</g>
<!-- HomeComponent -->
<g id="node4" class="node">
<title>HomeComponent</title>
<polygon fill="#ffffb3" stroke="black" points="253.55,-122 138.45,-122 138.45,-86 253.55,-86 253.55,-122"/>
<text text-anchor="middle" x="196" y="-99.8" font-family="Times,serif" font-size="14.00">HomeComponent</text>
</g>
<!-- HomeComponent&#45;&gt;FrontofficeModule -->
<g id="edge4" class="edge">
<title>HomeComponent&#45;&gt;FrontofficeModule</title>
<path fill="none" stroke="black" d="M196,-122.02C196,-139.37 196,-163 196,-163 196,-163 272.95,-163 272.95,-163"/>
<polygon fill="black" stroke="black" points="272.95,-166.5 282.95,-163 272.95,-159.5 272.95,-166.5"/>
</g>
<!-- UsComponent -->
<g id="node5" class="node">
<title>UsComponent</title>
<polygon fill="#ffffb3" stroke="black" points="120.38,-122 23.62,-122 23.62,-86 120.38,-86 120.38,-122"/>
<text text-anchor="middle" x="72" y="-99.8" font-family="Times,serif" font-size="14.00">UsComponent</text>
</g>
<!-- UsComponent&#45;&gt;FrontofficeModule -->
<g id="edge5" class="edge">
<title>UsComponent&#45;&gt;FrontofficeModule</title>
<path fill="none" stroke="black" d="M72,-122.28C72,-143.32 72,-175 72,-175 72,-175 272.96,-175 272.96,-175"/>
<polygon fill="black" stroke="black" points="272.96,-178.5 282.96,-175 272.96,-171.5 272.96,-178.5"/>
</g>
</g>
</svg>
