<?xml version="1.0" encoding="UTF-8" standalone="no"?>
<!DOCTYPE svg PUBLIC "-//W3C//DTD SVG 1.1//EN"
 "http://www.w3.org/Graphics/SVG/1.1/DTD/svg11.dtd">
<!-- Generated by graphviz version 2.47.0 (20210316.0004)
 -->
<!-- Title: dependencies Pages: 1 -->
<svg width="699pt" height="284pt"
 viewBox="0.00 0.00 699.00 284.00" xmlns="http://www.w3.org/2000/svg" xmlns:xlink="http://www.w3.org/1999/xlink">
<g id="graph0" class="graph" transform="scale(1 1) rotate(0) translate(4 280)">
<title>dependencies</title>
<polygon fill="white" stroke="transparent" points="-4,4 -4,-280 695,-280 695,4 -4,4"/>
<text text-anchor="start" x="324.51" y="-42.4" font-family="sans-serif" font-weight="bold" font-size="14.00">Legend</text>
<polygon fill="#ffffb3" stroke="transparent" points="111.5,-10 111.5,-30 131.5,-30 131.5,-10 111.5,-10"/>
<text text-anchor="start" x="135.13" y="-15.4" font-family="sans-serif" font-size="14.00"> &#160;Declarations</text>
<polygon fill="#8dd3c7" stroke="transparent" points="224.5,-10 224.5,-30 244.5,-30 244.5,-10 224.5,-10"/>
<text text-anchor="start" x="248.23" y="-15.4" font-family="sans-serif" font-size="14.00"> &#160;Module</text>
<polygon fill="#80b1d3" stroke="transparent" points="310.5,-10 310.5,-30 330.5,-30 330.5,-10 310.5,-10"/>
<text text-anchor="start" x="334.28" y="-15.4" font-family="sans-serif" font-size="14.00"> &#160;Bootstrap</text>
<polygon fill="#fdb462" stroke="transparent" points="407.5,-10 407.5,-30 427.5,-30 427.5,-10 407.5,-10"/>
<text text-anchor="start" x="431.17" y="-15.4" font-family="sans-serif" font-size="14.00"> &#160;Providers</text>
<polygon fill="#fb8072" stroke="transparent" points="503.5,-10 503.5,-30 523.5,-30 523.5,-10 503.5,-10"/>
<text text-anchor="start" x="527.23" y="-15.4" font-family="sans-serif" font-size="14.00"> &#160;Exports</text>
<g id="clust1" class="cluster">
<title>cluster_AppModule</title>
<polygon fill="none" stroke="black" stroke-dasharray="1,5" points="8,-70 8,-268 683,-268 683,-70 8,-70"/>
</g>
<g id="clust2" class="cluster">
<title>cluster_AppModule_declarations</title>
<polygon fill="none" stroke="black" points="553,-78 553,-130 675,-130 675,-78 553,-78"/>
</g>
<g id="clust4" class="cluster">
<title>cluster_AppModule_imports</title>
<polygon fill="none" stroke="black" points="16,-78 16,-130 545,-130 545,-78 16,-78"/>
</g>
<g id="clust6" class="cluster">
<title>cluster_AppModule_bootstrap</title>
<polygon fill="none" stroke="black" points="285,-208 285,-260 409,-260 409,-208 285,-208"/>
</g>
<!-- AppComponent -->
<g id="node1" class="node">
<title>AppComponent</title>
<polygon fill="#ffffb3" stroke="black" points="666.94,-122 561.06,-122 561.06,-86 666.94,-86 666.94,-122"/>
<text text-anchor="middle" x="614" y="-99.8" font-family="Times,serif" font-size="14.00">AppComponent</text>
</g>
<!-- AppModule -->
<g id="node2" class="node">
<title>AppModule</title>
<polygon fill="#8dd3c7" stroke="black" points="388.66,-187 385.66,-191 364.66,-191 361.66,-187 305.34,-187 305.34,-151 388.66,-151 388.66,-187"/>
<text text-anchor="middle" x="347" y="-164.8" font-family="Times,serif" font-size="14.00">AppModule</text>
</g>
<!-- AppComponent&#45;&gt;AppModule -->
<g id="edge1" class="edge">
<title>AppComponent&#45;&gt;AppModule</title>
<path fill="none" stroke="black" d="M614,-122.28C614,-143.32 614,-175 614,-175 614,-175 398.72,-175 398.72,-175"/>
<polygon fill="black" stroke="black" points="398.72,-171.5 388.72,-175 398.72,-178.5 398.72,-171.5"/>
</g>
<!-- AppComponent  -->
<g id="node7" class="node">
<title>AppComponent </title>
<polygon fill="#80b1d3" stroke="black" points="401.44,-252 292.56,-252 292.56,-216 401.44,-216 401.44,-252"/>
<text text-anchor="middle" x="347" y="-229.8" font-family="Times,serif" font-size="14.00">AppComponent </text>
</g>
<!-- AppModule&#45;&gt;AppComponent  -->
<g id="edge6" class="edge">
<title>AppModule&#45;&gt;AppComponent </title>
<path fill="none" stroke="black" stroke-dasharray="1,5" d="M347,-187.11C347,-187.11 347,-205.99 347,-205.99"/>
<polygon fill="black" stroke="black" points="343.5,-205.99 347,-215.99 350.5,-205.99 343.5,-205.99"/>
</g>
<!-- AppRoutingModule -->
<g id="node3" class="node">
<title>AppRoutingModule</title>
<polygon fill="#8dd3c7" stroke="black" points="537.27,-122 534.27,-126 513.27,-126 510.27,-122 408.73,-122 408.73,-86 537.27,-86 537.27,-122"/>
<text text-anchor="middle" x="473" y="-99.8" font-family="Times,serif" font-size="14.00">AppRoutingModule</text>
</g>
<!-- AppRoutingModule&#45;&gt;AppModule -->
<g id="edge2" class="edge">
<title>AppRoutingModule&#45;&gt;AppModule</title>
<path fill="none" stroke="black" d="M473,-122.02C473,-139.37 473,-163 473,-163 473,-163 398.96,-163 398.96,-163"/>
<polygon fill="black" stroke="black" points="398.96,-159.5 388.96,-163 398.96,-166.5 398.96,-159.5"/>
</g>
<!-- AuthModule -->
<g id="node4" class="node">
<title>AuthModule</title>
<polygon fill="#8dd3c7" stroke="black" points="390.55,-122 387.55,-126 366.55,-126 363.55,-122 303.45,-122 303.45,-86 390.55,-86 390.55,-122"/>
<text text-anchor="middle" x="347" y="-99.8" font-family="Times,serif" font-size="14.00">AuthModule</text>
</g>
<!-- AuthModule&#45;&gt;AppModule -->
<g id="edge3" class="edge">
<title>AuthModule&#45;&gt;AppModule</title>
<path fill="none" stroke="black" d="M347,-122.11C347,-122.11 347,-140.99 347,-140.99"/>
<polygon fill="black" stroke="black" points="343.5,-140.99 347,-150.99 350.5,-140.99 343.5,-140.99"/>
</g>
<!-- BackofficeModule -->
<g id="node5" class="node">
<title>BackofficeModule</title>
<polygon fill="#8dd3c7" stroke="black" points="285.46,-122 282.46,-126 261.46,-126 258.46,-122 164.54,-122 164.54,-86 285.46,-86 285.46,-122"/>
<text text-anchor="middle" x="225" y="-99.8" font-family="Times,serif" font-size="14.00">BackofficeModule</text>
</g>
<!-- BackofficeModule&#45;&gt;AppModule -->
<g id="edge4" class="edge">
<title>BackofficeModule&#45;&gt;AppModule</title>
<path fill="none" stroke="black" d="M225,-122.02C225,-139.37 225,-163 225,-163 225,-163 295.01,-163 295.01,-163"/>
<polygon fill="black" stroke="black" points="295.01,-166.5 305.01,-163 295.01,-159.5 295.01,-166.5"/>
</g>
<!-- FrontofficeModule -->
<g id="node6" class="node">
<title>FrontofficeModule</title>
<polygon fill="#8dd3c7" stroke="black" points="146.03,-122 143.03,-126 122.03,-126 119.03,-122 23.97,-122 23.97,-86 146.03,-86 146.03,-122"/>
<text text-anchor="middle" x="85" y="-99.8" font-family="Times,serif" font-size="14.00">FrontofficeModule</text>
</g>
<!-- FrontofficeModule&#45;&gt;AppModule -->
<g id="edge5" class="edge">
<title>FrontofficeModule&#45;&gt;AppModule</title>
<path fill="none" stroke="black" d="M85,-122.28C85,-143.32 85,-175 85,-175 85,-175 295.2,-175 295.2,-175"/>
<polygon fill="black" stroke="black" points="295.2,-178.5 305.2,-175 295.2,-171.5 295.2,-178.5"/>
</g>
</g>
</svg>
