<?xml version="1.0" encoding="UTF-8" standalone="no"?>
<!DOCTYPE svg PUBLIC "-//W3C//DTD SVG 1.1//EN"
 "http://www.w3.org/Graphics/SVG/1.1/DTD/svg11.dtd">
<!-- Generated by graphviz version 2.47.0 (20210316.0004)
 -->
<!-- Title: dependencies Pages: 1 -->
<svg width="883pt" height="211pt"
 viewBox="0.00 0.00 883.00 211.00" xmlns="http://www.w3.org/2000/svg" xmlns:xlink="http://www.w3.org/1999/xlink">
<g id="graph0" class="graph" transform="scale(1 1) rotate(0) translate(4 207)">
<title>dependencies</title>
<polygon fill="white" stroke="transparent" points="-4,4 -4,-207 879,-207 879,4 -4,4"/>
<text text-anchor="start" x="416.51" y="-42.4" font-family="sans-serif" font-weight="bold" font-size="14.00">Legend</text>
<polygon fill="#ffffb3" stroke="transparent" points="203.5,-10 203.5,-30 223.5,-30 223.5,-10 203.5,-10"/>
<text text-anchor="start" x="227.13" y="-15.4" font-family="sans-serif" font-size="14.00"> &#160;Declarations</text>
<polygon fill="#8dd3c7" stroke="transparent" points="316.5,-10 316.5,-30 336.5,-30 336.5,-10 316.5,-10"/>
<text text-anchor="start" x="340.23" y="-15.4" font-family="sans-serif" font-size="14.00"> &#160;Module</text>
<polygon fill="#80b1d3" stroke="transparent" points="402.5,-10 402.5,-30 422.5,-30 422.5,-10 402.5,-10"/>
<text text-anchor="start" x="426.28" y="-15.4" font-family="sans-serif" font-size="14.00"> &#160;Bootstrap</text>
<polygon fill="#fdb462" stroke="transparent" points="499.5,-10 499.5,-30 519.5,-30 519.5,-10 499.5,-10"/>
<text text-anchor="start" x="523.17" y="-15.4" font-family="sans-serif" font-size="14.00"> &#160;Providers</text>
<polygon fill="#fb8072" stroke="transparent" points="595.5,-10 595.5,-30 615.5,-30 615.5,-10 595.5,-10"/>
<text text-anchor="start" x="619.23" y="-15.4" font-family="sans-serif" font-size="14.00"> &#160;Exports</text>
<g id="clust1" class="cluster">
<title>cluster_BackofficeModule</title>
<polygon fill="none" stroke="black" stroke-dasharray="1,5" points="8,-70 8,-195 867,-195 867,-70 8,-70"/>
</g>
<g id="clust2" class="cluster">
<title>cluster_BackofficeModule_declarations</title>
<polygon fill="none" stroke="black" points="16,-78 16,-130 859,-130 859,-78 16,-78"/>
</g>
<!-- BackofficeComponent -->
<g id="node1" class="node">
<title>BackofficeComponent</title>
<polygon fill="#ffffb3" stroke="black" points="851.24,-122 708.76,-122 708.76,-86 851.24,-86 851.24,-122"/>
<text text-anchor="middle" x="780" y="-99.8" font-family="Times,serif" font-size="14.00">BackofficeComponent</text>
</g>
<!-- BackofficeModule -->
<g id="node7" class="node">
<title>BackofficeModule</title>
<polygon fill="#8dd3c7" stroke="black" points="481.46,-187 478.46,-191 457.46,-191 454.46,-187 360.54,-187 360.54,-151 481.46,-151 481.46,-187"/>
<text text-anchor="middle" x="421" y="-164.8" font-family="Times,serif" font-size="14.00">BackofficeModule</text>
</g>
<!-- BackofficeComponent&#45;&gt;BackofficeModule -->
<g id="edge1" class="edge">
<title>BackofficeComponent&#45;&gt;BackofficeModule</title>
<path fill="none" stroke="black" d="M780,-122.28C780,-143.32 780,-175 780,-175 780,-175 491.49,-175 491.49,-175"/>
<polygon fill="black" stroke="black" points="491.49,-171.5 481.49,-175 491.49,-178.5 491.49,-171.5"/>
</g>
<!-- CourseComponent -->
<g id="node2" class="node">
<title>CourseComponent</title>
<polygon fill="#ffffb3" stroke="black" points="690.49,-122 569.51,-122 569.51,-86 690.49,-86 690.49,-122"/>
<text text-anchor="middle" x="630" y="-99.8" font-family="Times,serif" font-size="14.00">CourseComponent</text>
</g>
<!-- CourseComponent&#45;&gt;BackofficeModule -->
<g id="edge2" class="edge">
<title>CourseComponent&#45;&gt;BackofficeModule</title>
<path fill="none" stroke="black" d="M630,-122.02C630,-139.37 630,-163 630,-163 630,-163 491.73,-163 491.73,-163"/>
<polygon fill="black" stroke="black" points="491.73,-159.5 481.73,-163 491.73,-166.5 491.73,-159.5"/>
</g>
<!-- HoraryComponent -->
<g id="node3" class="node">
<title>HoraryComponent</title>
<polygon fill="#ffffb3" stroke="black" points="551.47,-122 430.53,-122 430.53,-86 551.47,-86 551.47,-122"/>
<text text-anchor="middle" x="491" y="-99.8" font-family="Times,serif" font-size="14.00">HoraryComponent</text>
</g>
<!-- HoraryComponent&#45;&gt;BackofficeModule -->
<g id="edge3" class="edge">
<title>HoraryComponent&#45;&gt;BackofficeModule</title>
<path fill="none" stroke="black" d="M456,-122.11C456,-122.11 456,-140.99 456,-140.99"/>
<polygon fill="black" stroke="black" points="452.5,-140.99 456,-150.99 459.5,-140.99 452.5,-140.99"/>
</g>
<!-- NavbarComponent -->
<g id="node4" class="node">
<title>NavbarComponent</title>
<polygon fill="#ffffb3" stroke="black" points="412.03,-122 289.97,-122 289.97,-86 412.03,-86 412.03,-122"/>
<text text-anchor="middle" x="351" y="-99.8" font-family="Times,serif" font-size="14.00">NavbarComponent</text>
</g>
<!-- NavbarComponent&#45;&gt;BackofficeModule -->
<g id="edge4" class="edge">
<title>NavbarComponent&#45;&gt;BackofficeModule</title>
<path fill="none" stroke="black" d="M386.39,-122.11C386.39,-122.11 386.39,-140.99 386.39,-140.99"/>
<polygon fill="black" stroke="black" points="382.89,-140.99 386.39,-150.99 389.89,-140.99 382.89,-140.99"/>
</g>
<!-- PlanComponent -->
<g id="node5" class="node">
<title>PlanComponent</title>
<polygon fill="#ffffb3" stroke="black" points="272.22,-122 165.78,-122 165.78,-86 272.22,-86 272.22,-122"/>
<text text-anchor="middle" x="219" y="-99.8" font-family="Times,serif" font-size="14.00">PlanComponent</text>
</g>
<!-- PlanComponent&#45;&gt;BackofficeModule -->
<g id="edge5" class="edge">
<title>PlanComponent&#45;&gt;BackofficeModule</title>
<path fill="none" stroke="black" d="M219,-122.02C219,-139.37 219,-163 219,-163 219,-163 350.39,-163 350.39,-163"/>
<polygon fill="black" stroke="black" points="350.39,-166.5 360.39,-163 350.39,-159.5 350.39,-166.5"/>
</g>
<!-- SidebarComponent -->
<g id="node6" class="node">
<title>SidebarComponent</title>
<polygon fill="#ffffb3" stroke="black" points="148.1,-122 23.9,-122 23.9,-86 148.1,-86 148.1,-122"/>
<text text-anchor="middle" x="86" y="-99.8" font-family="Times,serif" font-size="14.00">SidebarComponent</text>
</g>
<!-- SidebarComponent&#45;&gt;BackofficeModule -->
<g id="edge6" class="edge">
<title>SidebarComponent&#45;&gt;BackofficeModule</title>
<path fill="none" stroke="black" d="M86,-122.28C86,-143.32 86,-175 86,-175 86,-175 350.33,-175 350.33,-175"/>
<polygon fill="black" stroke="black" points="350.33,-178.5 360.33,-175 350.33,-171.5 350.33,-178.5"/>
</g>
</g>
</svg>
