<?xml version="1.0" encoding="UTF-8" standalone="no"?>
<!DOCTYPE svg PUBLIC "-//W3C//DTD SVG 1.1//EN"
 "http://www.w3.org/Graphics/SVG/1.1/DTD/svg11.dtd">
<!-- Generated by graphviz version 2.47.0 (20210316.0004)
 -->
<!-- Title: dependencies Pages: 1 -->
<svg width="558pt" height="211pt"
 viewBox="0.00 0.00 558.00 211.00" xmlns="http://www.w3.org/2000/svg" xmlns:xlink="http://www.w3.org/1999/xlink">
<g id="graph0" class="graph" transform="scale(1 1) rotate(0) translate(4 207)">
<title>dependencies</title>
<polygon fill="white" stroke="transparent" points="-4,4 -4,-207 554,-207 554,4 -4,4"/>
<text text-anchor="start" x="254.01" y="-42.4" font-family="sans-serif" font-weight="bold" font-size="14.00">Legend</text>
<polygon fill="#ffffb3" stroke="transparent" points="41,-10 41,-30 61,-30 61,-10 41,-10"/>
<text text-anchor="start" x="64.63" y="-15.4" font-family="sans-serif" font-size="14.00"> &#160;Declarations</text>
<polygon fill="#8dd3c7" stroke="transparent" points="154,-10 154,-30 174,-30 174,-10 154,-10"/>
<text text-anchor="start" x="177.73" y="-15.4" font-family="sans-serif" font-size="14.00"> &#160;Module</text>
<polygon fill="#80b1d3" stroke="transparent" points="240,-10 240,-30 260,-30 260,-10 240,-10"/>
<text text-anchor="start" x="263.78" y="-15.4" font-family="sans-serif" font-size="14.00"> &#160;Bootstrap</text>
<polygon fill="#fdb462" stroke="transparent" points="337,-10 337,-30 357,-30 357,-10 337,-10"/>
<text text-anchor="start" x="360.67" y="-15.4" font-family="sans-serif" font-size="14.00"> &#160;Providers</text>
<polygon fill="#fb8072" stroke="transparent" points="433,-10 433,-30 453,-30 453,-10 433,-10"/>
<text text-anchor="start" x="456.73" y="-15.4" font-family="sans-serif" font-size="14.00"> &#160;Exports</text>
<g id="clust1" class="cluster">
<title>cluster_AppRoutingModule</title>
<polygon fill="none" stroke="black" stroke-dasharray="1,5" points="8,-70 8,-195 542,-195 542,-70 8,-70"/>
</g>
<g id="clust3" class="cluster">
<title>cluster_AppRoutingModule_imports</title>
<polygon fill="none" stroke="black" points="16,-78 16,-130 534,-130 534,-78 16,-78"/>
</g>
<!-- AuthRoutingModule -->
<g id="node1" class="node">
<title>AuthRoutingModule</title>
<polygon fill="#8dd3c7" stroke="black" points="526.17,-122 523.17,-126 502.17,-126 499.17,-122 393.83,-122 393.83,-86 526.17,-86 526.17,-122"/>
<text text-anchor="middle" x="460" y="-99.8" font-family="Times,serif" font-size="14.00">AuthRoutingModule</text>
</g>
<!-- AppRoutingModule -->
<g id="node4" class="node">
<title>AppRoutingModule</title>
<polygon fill="#8dd3c7" stroke="black" points="357.27,-187 354.27,-191 333.27,-191 330.27,-187 228.73,-187 228.73,-151 357.27,-151 357.27,-187"/>
<text text-anchor="middle" x="293" y="-164.8" font-family="Times,serif" font-size="14.00">AppRoutingModule</text>
</g>
<!-- AuthRoutingModule&#45;&gt;AppRoutingModule -->
<g id="edge1" class="edge">
<title>AuthRoutingModule&#45;&gt;AppRoutingModule</title>
<path fill="none" stroke="black" d="M460,-122.11C460,-141.34 460,-169 460,-169 460,-169 367.57,-169 367.57,-169"/>
<polygon fill="black" stroke="black" points="367.57,-165.5 357.57,-169 367.57,-172.5 367.57,-165.5"/>
</g>
<!-- BackofficeRoutingModule -->
<g id="node2" class="node">
<title>BackofficeRoutingModule</title>
<polygon fill="#8dd3c7" stroke="black" points="376.07,-122 373.07,-126 352.07,-126 349.07,-122 209.93,-122 209.93,-86 376.07,-86 376.07,-122"/>
<text text-anchor="middle" x="293" y="-99.8" font-family="Times,serif" font-size="14.00">BackofficeRoutingModule</text>
</g>
<!-- BackofficeRoutingModule&#45;&gt;AppRoutingModule -->
<g id="edge2" class="edge">
<title>BackofficeRoutingModule&#45;&gt;AppRoutingModule</title>
<path fill="none" stroke="black" d="M293,-122.11C293,-122.11 293,-140.99 293,-140.99"/>
<polygon fill="black" stroke="black" points="289.5,-140.99 293,-150.99 296.5,-140.99 289.5,-140.99"/>
</g>
<!-- FrontofficeRoutingModule -->
<g id="node3" class="node">
<title>FrontofficeRoutingModule</title>
<polygon fill="#8dd3c7" stroke="black" points="191.64,-122 188.64,-126 167.64,-126 164.64,-122 24.36,-122 24.36,-86 191.64,-86 191.64,-122"/>
<text text-anchor="middle" x="108" y="-99.8" font-family="Times,serif" font-size="14.00">FrontofficeRoutingModule</text>
</g>
<!-- FrontofficeRoutingModule&#45;&gt;AppRoutingModule -->
<g id="edge3" class="edge">
<title>FrontofficeRoutingModule&#45;&gt;AppRoutingModule</title>
<path fill="none" stroke="black" d="M108,-122.11C108,-141.34 108,-169 108,-169 108,-169 218.56,-169 218.56,-169"/>
<polygon fill="black" stroke="black" points="218.56,-172.5 228.56,-169 218.56,-165.5 218.56,-172.5"/>
</g>
</g>
</svg>
