<?xml version="1.0" encoding="UTF-8" standalone="no"?>
<!DOCTYPE svg PUBLIC "-//W3C//DTD SVG 1.1//EN"
 "http://www.w3.org/Graphics/SVG/1.1/DTD/svg11.dtd">
<!-- Generated by graphviz version 2.47.0 (20210316.0004)
 -->
<!-- Title: dependencies Pages: 1 -->
<svg width="2493pt" height="360pt"
 viewBox="0.00 0.00 2493.00 360.00" xmlns="http://www.w3.org/2000/svg" xmlns:xlink="http://www.w3.org/1999/xlink">
<g id="graph0" class="graph" transform="scale(1 1) rotate(0) translate(4 356)">
<title>dependencies</title>
<polygon fill="white" stroke="transparent" points="-4,4 -4,-356 2489,-356 2489,4 -4,4"/>
<text text-anchor="start" x="1221.51" y="-42.4" font-family="sans-serif" font-weight="bold" font-size="14.00">Legend</text>
<polygon fill="#ffffb3" stroke="transparent" points="1008.5,-10 1008.5,-30 1028.5,-30 1028.5,-10 1008.5,-10"/>
<text text-anchor="start" x="1032.13" y="-15.4" font-family="sans-serif" font-size="14.00"> &#160;Declarations</text>
<polygon fill="#8dd3c7" stroke="transparent" points="1121.5,-10 1121.5,-30 1141.5,-30 1141.5,-10 1121.5,-10"/>
<text text-anchor="start" x="1145.23" y="-15.4" font-family="sans-serif" font-size="14.00"> &#160;Module</text>
<polygon fill="#80b1d3" stroke="transparent" points="1207.5,-10 1207.5,-30 1227.5,-30 1227.5,-10 1207.5,-10"/>
<text text-anchor="start" x="1231.28" y="-15.4" font-family="sans-serif" font-size="14.00"> &#160;Bootstrap</text>
<polygon fill="#fdb462" stroke="transparent" points="1304.5,-10 1304.5,-30 1324.5,-30 1324.5,-10 1304.5,-10"/>
<text text-anchor="start" x="1328.17" y="-15.4" font-family="sans-serif" font-size="14.00"> &#160;Providers</text>
<polygon fill="#fb8072" stroke="transparent" points="1400.5,-10 1400.5,-30 1420.5,-30 1420.5,-10 1400.5,-10"/>
<text text-anchor="start" x="1424.23" y="-15.4" font-family="sans-serif" font-size="14.00"> &#160;Exports</text>
<g id="clust1" class="cluster">
<title>cluster_AppModule</title>
<polygon fill="none" stroke="black" stroke-dasharray="1,5" points="935,-146 935,-344 1610,-344 1610,-146 935,-146"/>
</g>
<g id="clust2" class="cluster">
<title>cluster_AppModule_declarations</title>
<polygon fill="none" stroke="black" points="1480,-154 1480,-206 1602,-206 1602,-154 1480,-154"/>
</g>
<g id="clust4" class="cluster">
<title>cluster_AppModule_imports</title>
<polygon fill="none" stroke="black" points="943,-154 943,-206 1472,-206 1472,-154 943,-154"/>
</g>
<g id="clust6" class="cluster">
<title>cluster_AppModule_bootstrap</title>
<polygon fill="none" stroke="black" points="1201,-284 1201,-336 1325,-336 1325,-284 1201,-284"/>
</g>
<g id="clust8" class="cluster">
<title>cluster_AppRoutingModule</title>
<polygon fill="none" stroke="black" stroke-dasharray="1,5" points="8,-70 8,-138 542,-138 542,-70 8,-70"/>
</g>
<g id="clust10" class="cluster">
<title>cluster_AppRoutingModule_imports</title>
<polygon fill="none" stroke="black" points="16,-78 16,-130 534,-130 534,-78 16,-78"/>
</g>
<g id="clust14" class="cluster">
<title>cluster_AuthModule</title>
<polygon fill="none" stroke="black" stroke-dasharray="1,5" points="550,-70 550,-138 842,-138 842,-70 550,-70"/>
</g>
<g id="clust15" class="cluster">
<title>cluster_AuthModule_declarations</title>
<polygon fill="none" stroke="black" points="558,-78 558,-130 834,-130 834,-78 558,-78"/>
</g>
<g id="clust28" class="cluster">
<title>cluster_BackofficeModule</title>
<polygon fill="none" stroke="black" stroke-dasharray="1,5" points="850,-70 850,-138 1709,-138 1709,-70 850,-70"/>
</g>
<g id="clust29" class="cluster">
<title>cluster_BackofficeModule_declarations</title>
<polygon fill="none" stroke="black" points="858,-78 858,-130 1701,-130 1701,-78 858,-78"/>
</g>
<g id="clust52" class="cluster">
<title>cluster_FrontofficeModule</title>
<polygon fill="none" stroke="black" stroke-dasharray="1,5" points="1717,-70 1717,-138 2477,-138 2477,-70 1717,-70"/>
</g>
<g id="clust53" class="cluster">
<title>cluster_FrontofficeModule_declarations</title>
<polygon fill="none" stroke="black" points="1725,-78 1725,-130 2469,-130 2469,-78 1725,-78"/>
</g>
<!-- AppComponent -->
<g id="node1" class="node">
<title>AppComponent</title>
<polygon fill="#ffffb3" stroke="black" points="1593.94,-198 1488.06,-198 1488.06,-162 1593.94,-162 1593.94,-198"/>
<text text-anchor="middle" x="1541" y="-175.8" font-family="Times,serif" font-size="14.00">AppComponent</text>
</g>
<!-- AppModule -->
<g id="node2" class="node">
<title>AppModule</title>
<polygon fill="#8dd3c7" stroke="black" points="1304.66,-263 1301.66,-267 1280.66,-267 1277.66,-263 1221.34,-263 1221.34,-227 1304.66,-227 1304.66,-263"/>
<text text-anchor="middle" x="1263" y="-240.8" font-family="Times,serif" font-size="14.00">AppModule</text>
</g>
<!-- AppComponent&#45;&gt;AppModule -->
<g id="edge1" class="edge">
<title>AppComponent&#45;&gt;AppModule</title>
<path fill="none" stroke="black" d="M1541,-198.28C1541,-219.32 1541,-251 1541,-251 1541,-251 1314.92,-251 1314.92,-251"/>
<polygon fill="black" stroke="black" points="1314.92,-247.5 1304.92,-251 1314.92,-254.5 1314.92,-247.5"/>
</g>
<!-- AppComponent  -->
<g id="node7" class="node">
<title>AppComponent </title>
<polygon fill="#80b1d3" stroke="black" points="1317.44,-328 1208.56,-328 1208.56,-292 1317.44,-292 1317.44,-328"/>
<text text-anchor="middle" x="1263" y="-305.8" font-family="Times,serif" font-size="14.00">AppComponent </text>
</g>
<!-- AppModule&#45;&gt;AppComponent  -->
<g id="edge6" class="edge">
<title>AppModule&#45;&gt;AppComponent </title>
<path fill="none" stroke="black" stroke-dasharray="1,5" d="M1263,-263.11C1263,-263.11 1263,-281.99 1263,-281.99"/>
<polygon fill="black" stroke="black" points="1259.5,-281.99 1263,-291.99 1266.5,-281.99 1259.5,-281.99"/>
</g>
<!-- AppRoutingModule -->
<g id="node3" class="node">
<title>AppRoutingModule</title>
<polygon fill="#8dd3c7" stroke="black" points="1079.27,-198 1076.27,-202 1055.27,-202 1052.27,-198 950.73,-198 950.73,-162 1079.27,-162 1079.27,-198"/>
<text text-anchor="middle" x="1015" y="-175.8" font-family="Times,serif" font-size="14.00">AppRoutingModule</text>
</g>
<!-- AppRoutingModule&#45;&gt;AppModule -->
<g id="edge2" class="edge">
<title>AppRoutingModule&#45;&gt;AppModule</title>
<path fill="none" stroke="black" d="M1015,-198.28C1015,-219.32 1015,-251 1015,-251 1015,-251 1211.21,-251 1211.21,-251"/>
<polygon fill="black" stroke="black" points="1211.21,-254.5 1221.21,-251 1211.21,-247.5 1211.21,-254.5"/>
</g>
<!-- AuthModule -->
<g id="node4" class="node">
<title>AuthModule</title>
<polygon fill="#8dd3c7" stroke="black" points="1184.55,-198 1181.55,-202 1160.55,-202 1157.55,-198 1097.45,-198 1097.45,-162 1184.55,-162 1184.55,-198"/>
<text text-anchor="middle" x="1141" y="-175.8" font-family="Times,serif" font-size="14.00">AuthModule</text>
</g>
<!-- AuthModule&#45;&gt;AppModule -->
<g id="edge3" class="edge">
<title>AuthModule&#45;&gt;AppModule</title>
<path fill="none" stroke="black" d="M1141,-198.02C1141,-215.37 1141,-239 1141,-239 1141,-239 1211.01,-239 1211.01,-239"/>
<polygon fill="black" stroke="black" points="1211.01,-242.5 1221.01,-239 1211.01,-235.5 1211.01,-242.5"/>
</g>
<!-- BackofficeModule -->
<g id="node5" class="node">
<title>BackofficeModule</title>
<polygon fill="#8dd3c7" stroke="black" points="1323.46,-198 1320.46,-202 1299.46,-202 1296.46,-198 1202.54,-198 1202.54,-162 1323.46,-162 1323.46,-198"/>
<text text-anchor="middle" x="1263" y="-175.8" font-family="Times,serif" font-size="14.00">BackofficeModule</text>
</g>
<!-- BackofficeModule&#45;&gt;AppModule -->
<g id="edge4" class="edge">
<title>BackofficeModule&#45;&gt;AppModule</title>
<path fill="none" stroke="black" d="M1263,-198.11C1263,-198.11 1263,-216.99 1263,-216.99"/>
<polygon fill="black" stroke="black" points="1259.5,-216.99 1263,-226.99 1266.5,-216.99 1259.5,-216.99"/>
</g>
<!-- FrontofficeModule -->
<g id="node6" class="node">
<title>FrontofficeModule</title>
<polygon fill="#8dd3c7" stroke="black" points="1464.03,-198 1461.03,-202 1440.03,-202 1437.03,-198 1341.97,-198 1341.97,-162 1464.03,-162 1464.03,-198"/>
<text text-anchor="middle" x="1403" y="-175.8" font-family="Times,serif" font-size="14.00">FrontofficeModule</text>
</g>
<!-- FrontofficeModule&#45;&gt;AppModule -->
<g id="edge5" class="edge">
<title>FrontofficeModule&#45;&gt;AppModule</title>
<path fill="none" stroke="black" d="M1403,-198.02C1403,-215.37 1403,-239 1403,-239 1403,-239 1315,-239 1315,-239"/>
<polygon fill="black" stroke="black" points="1315,-235.5 1305,-239 1315,-242.5 1315,-235.5"/>
</g>
<!-- AuthRoutingModule -->
<g id="node8" class="node">
<title>AuthRoutingModule</title>
<polygon fill="#8dd3c7" stroke="black" points="526.17,-122 523.17,-126 502.17,-126 499.17,-122 393.83,-122 393.83,-86 526.17,-86 526.17,-122"/>
<text text-anchor="middle" x="460" y="-99.8" font-family="Times,serif" font-size="14.00">AuthRoutingModule</text>
</g>
<!-- AuthRoutingModule&#45;&gt;AppRoutingModule -->
<g id="edge7" class="edge">
<title>AuthRoutingModule&#45;&gt;AppRoutingModule</title>
<path fill="none" stroke="black" d="M460,-122.31C460,-142.15 460,-171 460,-171 460,-171 940.52,-171 940.52,-171"/>
<polygon fill="black" stroke="black" points="940.52,-174.5 950.52,-171 940.52,-167.5 940.52,-174.5"/>
</g>
<!-- BackofficeRoutingModule -->
<g id="node9" class="node">
<title>BackofficeRoutingModule</title>
<polygon fill="#8dd3c7" stroke="black" points="376.07,-122 373.07,-126 352.07,-126 349.07,-122 209.93,-122 209.93,-86 376.07,-86 376.07,-122"/>
<text text-anchor="middle" x="293" y="-99.8" font-family="Times,serif" font-size="14.00">BackofficeRoutingModule</text>
</g>
<!-- BackofficeRoutingModule&#45;&gt;AppRoutingModule -->
<g id="edge8" class="edge">
<title>BackofficeRoutingModule&#45;&gt;AppRoutingModule</title>
<path fill="none" stroke="black" d="M293,-122.01C293,-144.49 293,-180 293,-180 293,-180 940.61,-180 940.61,-180"/>
<polygon fill="black" stroke="black" points="940.61,-183.5 950.61,-180 940.61,-176.5 940.61,-183.5"/>
</g>
<!-- FrontofficeRoutingModule -->
<g id="node10" class="node">
<title>FrontofficeRoutingModule</title>
<polygon fill="#8dd3c7" stroke="black" points="191.64,-122 188.64,-126 167.64,-126 164.64,-122 24.36,-122 24.36,-86 191.64,-86 191.64,-122"/>
<text text-anchor="middle" x="108" y="-99.8" font-family="Times,serif" font-size="14.00">FrontofficeRoutingModule</text>
</g>
<!-- FrontofficeRoutingModule&#45;&gt;AppRoutingModule -->
<g id="edge9" class="edge">
<title>FrontofficeRoutingModule&#45;&gt;AppRoutingModule</title>
<path fill="none" stroke="black" d="M108,-122.03C108,-146.98 108,-189 108,-189 108,-189 940.5,-189 940.5,-189"/>
<polygon fill="black" stroke="black" points="940.5,-192.5 950.5,-189 940.5,-185.5 940.5,-192.5"/>
</g>
<!-- LoginComponent -->
<g id="node11" class="node">
<title>LoginComponent</title>
<polygon fill="#ffffb3" stroke="black" points="826.28,-122 711.72,-122 711.72,-86 826.28,-86 826.28,-122"/>
<text text-anchor="middle" x="769" y="-99.8" font-family="Times,serif" font-size="14.00">LoginComponent</text>
</g>
<!-- LoginComponent&#45;&gt;AuthModule -->
<g id="edge10" class="edge">
<title>LoginComponent&#45;&gt;AuthModule</title>
<path fill="none" stroke="black" d="M769,-122.19C769,-137.18 769,-156 769,-156 769,-156 1105.67,-156 1105.67,-156 1105.67,-156 1105.67,-156.58 1105.67,-156.58"/>
<polygon fill="black" stroke="black" points="1102.17,-151.81 1105.67,-161.81 1109.17,-151.81 1102.17,-151.81"/>
</g>
<!-- RegisterComponent -->
<g id="node12" class="node">
<title>RegisterComponent</title>
<polygon fill="#ffffb3" stroke="black" points="693.98,-122 566.02,-122 566.02,-86 693.98,-86 693.98,-122"/>
<text text-anchor="middle" x="630" y="-99.8" font-family="Times,serif" font-size="14.00">RegisterComponent</text>
</g>
<!-- RegisterComponent&#45;&gt;AuthModule -->
<g id="edge11" class="edge">
<title>RegisterComponent&#45;&gt;AuthModule</title>
<path fill="none" stroke="black" d="M630,-122.01C630,-138.05 630,-159 630,-159 630,-159 1101.45,-159 1101.45,-159 1101.45,-159 1101.45,-159.29 1101.45,-159.29"/>
<polygon fill="black" stroke="black" points="1097.95,-151.92 1101.45,-161.92 1104.95,-151.92 1097.95,-151.92"/>
</g>
<!-- BackofficeComponent -->
<g id="node13" class="node">
<title>BackofficeComponent</title>
<polygon fill="#ffffb3" stroke="black" points="1693.24,-122 1550.76,-122 1550.76,-86 1693.24,-86 1693.24,-122"/>
<text text-anchor="middle" x="1622" y="-99.8" font-family="Times,serif" font-size="14.00">BackofficeComponent</text>
</g>
<!-- BackofficeComponent&#45;&gt;BackofficeModule -->
<g id="edge12" class="edge">
<title>BackofficeComponent&#45;&gt;BackofficeModule</title>
<path fill="none" stroke="black" d="M1572.17,-122.17C1572.17,-126.05 1572.17,-129 1572.17,-129 1572.17,-129 1310.74,-129 1310.74,-129 1310.74,-129 1310.74,-151.88 1310.74,-151.88"/>
<polygon fill="black" stroke="black" points="1307.24,-151.88 1310.74,-161.88 1314.24,-151.88 1307.24,-151.88"/>
</g>
<!-- CourseComponent -->
<g id="node14" class="node">
<title>CourseComponent</title>
<polygon fill="#ffffb3" stroke="black" points="1532.49,-122 1411.51,-122 1411.51,-86 1532.49,-86 1532.49,-122"/>
<text text-anchor="middle" x="1472" y="-99.8" font-family="Times,serif" font-size="14.00">CourseComponent</text>
</g>
<!-- CourseComponent&#45;&gt;BackofficeModule -->
<g id="edge13" class="edge">
<title>CourseComponent&#45;&gt;BackofficeModule</title>
<path fill="none" stroke="black" d="M1419.04,-122.17C1419.04,-124.45 1419.04,-126 1419.04,-126 1419.04,-126 1298,-126 1298,-126 1298,-126 1298,-151.72 1298,-151.72"/>
<polygon fill="black" stroke="black" points="1294.5,-151.72 1298,-161.72 1301.5,-151.72 1294.5,-151.72"/>
</g>
<!-- HoraryComponent -->
<g id="node15" class="node">
<title>HoraryComponent</title>
<polygon fill="#ffffb3" stroke="black" points="1393.47,-122 1272.53,-122 1272.53,-86 1393.47,-86 1393.47,-122"/>
<text text-anchor="middle" x="1333" y="-99.8" font-family="Times,serif" font-size="14.00">HoraryComponent</text>
</g>
<!-- HoraryComponent&#45;&gt;BackofficeModule -->
<g id="edge14" class="edge">
<title>HoraryComponent&#45;&gt;BackofficeModule</title>
<path fill="none" stroke="black" d="M1285.25,-122.01C1285.25,-122.01 1285.25,-151.85 1285.25,-151.85"/>
<polygon fill="black" stroke="black" points="1281.75,-151.85 1285.25,-161.85 1288.75,-151.85 1281.75,-151.85"/>
</g>
<!-- NavbarComponent -->
<g id="node16" class="node">
<title>NavbarComponent</title>
<polygon fill="#ffffb3" stroke="black" points="1254.03,-122 1131.97,-122 1131.97,-86 1254.03,-86 1254.03,-122"/>
<text text-anchor="middle" x="1193" y="-99.8" font-family="Times,serif" font-size="14.00">NavbarComponent</text>
</g>
<!-- NavbarComponent&#45;&gt;BackofficeModule -->
<g id="edge15" class="edge">
<title>NavbarComponent&#45;&gt;BackofficeModule</title>
<path fill="none" stroke="black" d="M1241.33,-122.01C1241.33,-122.01 1241.33,-151.85 1241.33,-151.85"/>
<polygon fill="black" stroke="black" points="1237.83,-151.85 1241.33,-161.85 1244.83,-151.85 1237.83,-151.85"/>
</g>
<!-- PlanComponent -->
<g id="node17" class="node">
<title>PlanComponent</title>
<polygon fill="#ffffb3" stroke="black" points="1114.22,-122 1007.78,-122 1007.78,-86 1114.22,-86 1114.22,-122"/>
<text text-anchor="middle" x="1061" y="-99.8" font-family="Times,serif" font-size="14.00">PlanComponent</text>
</g>
<!-- PlanComponent&#45;&gt;BackofficeModule -->
<g id="edge16" class="edge">
<title>PlanComponent&#45;&gt;BackofficeModule</title>
<path fill="none" stroke="black" d="M1109.89,-122.04C1109.89,-134.56 1109.89,-149 1109.89,-149 1109.89,-149 1228.39,-149 1228.39,-149 1228.39,-149 1228.39,-151.97 1228.39,-151.97"/>
<polygon fill="black" stroke="black" points="1224.89,-151.97 1228.39,-161.97 1231.89,-151.97 1224.89,-151.97"/>
</g>
<!-- SidebarComponent -->
<g id="node18" class="node">
<title>SidebarComponent</title>
<polygon fill="#ffffb3" stroke="black" points="990.1,-122 865.9,-122 865.9,-86 990.1,-86 990.1,-122"/>
<text text-anchor="middle" x="928" y="-99.8" font-family="Times,serif" font-size="14.00">SidebarComponent</text>
</g>
<!-- SidebarComponent&#45;&gt;BackofficeModule -->
<g id="edge17" class="edge">
<title>SidebarComponent&#45;&gt;BackofficeModule</title>
<path fill="none" stroke="black" d="M970.33,-122.15C970.33,-135.74 970.33,-152 970.33,-152 970.33,-152 1215.46,-152 1215.46,-152 1215.46,-152 1215.46,-152.98 1215.46,-152.98"/>
<polygon fill="black" stroke="black" points="1211.96,-151.79 1215.46,-161.79 1218.96,-151.79 1211.96,-151.79"/>
</g>
<!-- FrontFooterComponent -->
<g id="node19" class="node">
<title>FrontFooterComponent</title>
<polygon fill="#ffffb3" stroke="black" points="2461.21,-122 2312.79,-122 2312.79,-86 2461.21,-86 2461.21,-122"/>
<text text-anchor="middle" x="2387" y="-99.8" font-family="Times,serif" font-size="14.00">FrontFooterComponent</text>
</g>
<!-- FrontFooterComponent&#45;&gt;FrontofficeModule -->
<g id="edge18" class="edge">
<title>FrontFooterComponent&#45;&gt;FrontofficeModule</title>
<path fill="none" stroke="black" d="M2387,-122.06C2387,-133.44 2387,-146 2387,-146 2387,-146 1456.73,-146 1456.73,-146 1456.73,-146 1456.73,-151.81 1456.73,-151.81"/>
<polygon fill="black" stroke="black" points="1453.23,-151.81 1456.73,-161.81 1460.23,-151.81 1453.23,-151.81"/>
</g>
<!-- FrontHeaderComponent -->
<g id="node20" class="node">
<title>FrontHeaderComponent</title>
<polygon fill="#ffffb3" stroke="black" points="2295.08,-122 2142.92,-122 2142.92,-86 2295.08,-86 2295.08,-122"/>
<text text-anchor="middle" x="2219" y="-99.8" font-family="Times,serif" font-size="14.00">FrontHeaderComponent</text>
</g>
<!-- FrontHeaderComponent&#45;&gt;FrontofficeModule -->
<g id="edge19" class="edge">
<title>FrontHeaderComponent&#45;&gt;FrontofficeModule</title>
<path fill="none" stroke="black" d="M2219,-122.11C2219,-131.9 2219,-142 2219,-142 2219,-142 1449.19,-142 1449.19,-142 1449.19,-142 1449.19,-151.89 1449.19,-151.89"/>
<polygon fill="black" stroke="black" points="1445.69,-151.89 1449.19,-161.89 1452.69,-151.89 1445.69,-151.89"/>
</g>
<!-- FrontofficeComponent -->
<g id="node21" class="node">
<title>FrontofficeComponent</title>
<polygon fill="#ffffb3" stroke="black" points="2125.31,-122 1980.69,-122 1980.69,-86 2125.31,-86 2125.31,-122"/>
<text text-anchor="middle" x="2053" y="-99.8" font-family="Times,serif" font-size="14.00">FrontofficeComponent</text>
</g>
<!-- FrontofficeComponent&#45;&gt;FrontofficeModule -->
<g id="edge20" class="edge">
<title>FrontofficeComponent&#45;&gt;FrontofficeModule</title>
<path fill="none" stroke="black" d="M2053,-122.32C2053,-130.79 2053,-139 2053,-139 2053,-139 1441.65,-139 1441.65,-139 1441.65,-139 1441.65,-151.9 1441.65,-151.9"/>
<polygon fill="black" stroke="black" points="1438.15,-151.9 1441.65,-161.9 1445.15,-151.9 1438.15,-151.9"/>
</g>
<!-- HomeComponent -->
<g id="node22" class="node">
<title>HomeComponent</title>
<polygon fill="#ffffb3" stroke="black" points="1962.55,-122 1847.45,-122 1847.45,-86 1962.55,-86 1962.55,-122"/>
<text text-anchor="middle" x="1905" y="-99.8" font-family="Times,serif" font-size="14.00">HomeComponent</text>
</g>
<!-- HomeComponent&#45;&gt;FrontofficeModule -->
<g id="edge21" class="edge">
<title>HomeComponent&#45;&gt;FrontofficeModule</title>
<path fill="none" stroke="black" d="M1905,-122.24C1905,-129.43 1905,-136 1905,-136 1905,-136 1434.12,-136 1434.12,-136 1434.12,-136 1434.12,-151.85 1434.12,-151.85"/>
<polygon fill="black" stroke="black" points="1430.62,-151.85 1434.12,-161.85 1437.62,-151.85 1430.62,-151.85"/>
</g>
<!-- UsComponent -->
<g id="node23" class="node">
<title>UsComponent</title>
<polygon fill="#ffffb3" stroke="black" points="1829.38,-122 1732.62,-122 1732.62,-86 1829.38,-86 1829.38,-122"/>
<text text-anchor="middle" x="1781" y="-99.8" font-family="Times,serif" font-size="14.00">UsComponent</text>
</g>
<!-- UsComponent&#45;&gt;FrontofficeModule -->
<g id="edge22" class="edge">
<title>UsComponent&#45;&gt;FrontofficeModule</title>
<path fill="none" stroke="black" d="M1781,-122.21C1781,-127.55 1781,-132 1781,-132 1781,-132 1426.58,-132 1426.58,-132 1426.58,-132 1426.58,-151.85 1426.58,-151.85"/>
<polygon fill="black" stroke="black" points="1423.08,-151.85 1426.58,-161.85 1430.08,-151.85 1423.08,-151.85"/>
</g>
</g>
</svg>
